<?xml version="1.0" encoding="UTF-8"?>
<svg xmlns="http://www.w3.org/2000/svg" xmlns:xlink="http://www.w3.org/1999/xlink" viewBox="0 0 50 50" version="1.1" width="50px" height="50px">
<g id="surface1">
<path style=" " d="M 25 0 C 19.488281 0 15 4.488281 15 10 C 15 15.511719 19.488281 20 25 20 C 30.511719 20 35 15.511719 35 10 C 35 4.488281 30.511719 0 25 0 Z M 25 2 C 29.429688 2 33 5.570313 33 10 C 33 14.429688 29.429688 18 25 18 C 20.570313 18 17 14.429688 17 10 C 17 5.570313 20.570313 2 25 2 Z M 25 21 C 20.75 21 17.835938 22.609375 16.0625 24.25 C 14.917969 25.308594 14.265625 26.355469 13.90625 27 L 12.5 27 C 10.746094 27 9.355469 28.539063 9.5 30.28125 L 10.40625 40.5625 C 10.117188 40.734375 9.84375 40.9375 9.59375 41.1875 L 8.90625 41.90625 C 7.722656 43.089844 7.722656 45.035156 8.90625 46.21875 L 11.78125 49.09375 C 12.964844 50.277344 14.910156 50.277344 16.09375 49.09375 L 16.8125 48.40625 C 17.226563 47.992188 17.523438 47.519531 17.71875 47 L 32.28125 47 C 32.476563 47.519531 32.773438 47.992188 33.1875 48.40625 L 33.90625 49.09375 C 35.089844 50.277344 37.035156 50.277344 38.21875 49.09375 L 41.09375 46.21875 C 42.277344 45.035156 42.277344 43.089844 41.09375 41.90625 L 40.40625 41.1875 C 40.191406 40.972656 39.964844 40.78125 39.71875 40.625 L 40.6875 30.28125 C 40.832031 28.539063 39.441406 27 37.6875 27 L 36.09375 27 C 35.734375 26.355469 35.082031 25.308594 33.9375 24.25 C 32.164063 22.609375 29.25 21 25 21 Z M 25 23 C 28.75 23 31.085938 24.390625 32.5625 25.75 C 33.042969 26.195313 33.394531 26.617188 33.6875 27 L 16.3125 27 C 16.605469 26.617188 16.957031 26.195313 17.4375 25.75 C 18.914063 24.390625 21.25 23 25 23 Z M 12.5 29 L 37.6875 29 C 38.320313 29 38.757813 29.453125 38.71875 30.09375 C 38.71875 30.105469 38.71875 30.113281 38.71875 30.125 L 37.8125 40.03125 C 37.730469 40.027344 37.644531 40 37.5625 40 C 36.527344 40 35.472656 40.402344 34.6875 41.1875 L 33.28125 42.59375 C 32.578125 43.257813 32.183594 44.117188 32.0625 45 L 17.9375 45 C 17.816406 44.117188 17.421875 43.257813 16.71875 42.59375 L 15.3125 41.1875 C 14.527344 40.402344 13.472656 40 12.4375 40 C 12.417969 40 12.394531 40 12.375 40 L 11.5 30.125 C 11.445313 29.464844 11.855469 29 12.5 29 Z M 34.5 31 C 33.671875 31 33 31.671875 33 32.5 C 33 33.328125 33.671875 34 34.5 34 C 35.328125 34 36 33.328125 36 32.5 C 36 31.671875 35.328125 31 34.5 31 Z M 12.4375 42 C 12.953125 42 13.492188 42.179688 13.90625 42.59375 L 15.28125 44 C 15.292969 44.011719 15.300781 44.019531 15.3125 44.03125 C 16.207031 44.855469 16.214844 46.191406 15.40625 47 L 14.6875 47.6875 C 14.269531 48.105469 13.636719 48.105469 13.21875 47.6875 L 10.3125 44.78125 C 9.894531 44.363281 9.894531 43.730469 10.3125 43.3125 L 11 42.59375 C 11.414063 42.179688 11.921875 42 12.4375 42 Z M 37.5625 42 C 38.078125 42 38.585938 42.179688 39 42.59375 L 39.6875 43.3125 C 40.105469 43.730469 40.105469 44.363281 39.6875 44.78125 L 36.78125 47.6875 C 36.363281 48.105469 35.730469 48.105469 35.3125 47.6875 L 34.59375 47 C 33.785156 46.191406 33.792969 44.855469 34.6875 44.03125 C 34.699219 44.019531 34.707031 44.011719 34.71875 44 L 36.09375 42.59375 C 36.507813 42.179688 37.046875 42 37.5625 42 Z "/>
</g>
</svg>
