<?xml version="1.0"?>
<svg xmlns="http://www.w3.org/2000/svg" xmlns:xlink="http://www.w3.org/1999/xlink" version="1.1" viewBox="0 0 224 224" width="50px" height="50px"><g fill="none" fill-rule="nonzero" stroke="none" stroke-width="1" stroke-linecap="butt" stroke-linejoin="miter" stroke-miterlimit="10" stroke-dasharray="" stroke-dashoffset="0" font-family="none" font-weight="none" font-size="none" text-anchor="none" style="mix-blend-mode: normal"><path d="M0,224v-224h224v224z" fill="none"/><g fill="#212121"><path d="M112,8.96c-56.81984,0 -103.04,46.22016 -103.04,103.04c0,56.81984 46.22016,103.04 103.04,103.04c56.81984,0 103.04,-46.22016 103.04,-103.04c0,-20.4288 -6.00194,-39.47181 -16.2925,-55.50125l-6.13375,7.245c8.4896,14.12992 13.46625,30.60505 13.46625,48.25625c0,51.87392 -42.20608,94.08 -94.08,94.08c-51.87392,0 -94.08,-42.20608 -94.08,-94.08c0,-51.87392 42.20608,-94.08 94.08,-94.08c24.38464,0 46.5647,9.40695 63.2975,24.68375l5.8625,-6.92125c-18.3008,-16.5984 -42.5712,-26.7225 -69.16,-26.7225zM193.69875,34.7375l-86.56375,102.1475l-36.435,-33.985l-6.1075,6.55375l43.30375,40.39l92.645,-109.31375z"/></g></g></svg>
