<?xml version="1.0" encoding="UTF-8"?>
<svg xmlns="http://www.w3.org/2000/svg" xmlns:xlink="http://www.w3.org/1999/xlink" viewBox="0 0 50 50" version="1.1" width="50px" height="50px">
<g id="surface1">
<path style=" " d="M 25 10 C 14.839844 10 8.761719 10.898438 5.0625 12.375 C 3.210938 13.113281 1.9375 14.011719 1.125 15.0625 C 0.3125 16.113281 0 17.308594 0 18.40625 L 0 25.6875 C -0.0585938 25.882813 -0.0585938 26.085938 0 26.28125 L 0 50 L 8 50 L 8 47 L 42 47 L 42 50 L 50 50 L 50 26.1875 C 50.027344 26.054688 50.027344 25.914063 50 25.78125 L 50 18.40625 C 50 17.308594 49.6875 16.113281 48.875 15.0625 C 48.0625 14.011719 46.789063 13.113281 44.9375 12.375 C 41.238281 10.898438 35.160156 10 25 10 Z M 25 12 C 35.039063 12 40.96875 12.953125 44.21875 14.25 C 45.84375 14.898438 46.78125 15.597656 47.3125 16.28125 C 47.84375 16.964844 48 17.652344 48 18.40625 L 48 25 L 46 25 L 46 22.40625 C 46 20.4375 45.398438 18.628906 43.75 17.53125 C 42.101563 16.433594 39.683594 16 36 16 C 32.316406 16 29.898438 16.433594 28.25 17.53125 C 26.601563 18.628906 26 20.4375 26 22.40625 L 26 25 L 24 25 L 24 22.40625 C 24 20.4375 23.398438 18.628906 21.75 17.53125 C 20.101563 16.433594 17.683594 16 14 16 C 10.316406 16 7.898438 16.433594 6.25 17.53125 C 4.601563 18.628906 4 20.4375 4 22.40625 L 4 25 L 2 25 L 2 18.40625 C 2 17.652344 2.15625 16.964844 2.6875 16.28125 C 3.21875 15.597656 4.15625 14.898438 5.78125 14.25 C 9.03125 12.953125 14.960938 12 25 12 Z M 14 18 C 17.515625 18 19.605469 18.488281 20.65625 19.1875 C 21.707031 19.886719 22 20.773438 22 22.40625 L 22 25 L 6 25 L 6 22.40625 C 6 20.773438 6.292969 19.886719 7.34375 19.1875 C 8.394531 18.488281 10.484375 18 14 18 Z M 36 18 C 39.515625 18 41.605469 18.488281 42.65625 19.1875 C 43.707031 19.886719 44 20.773438 44 22.40625 L 44 25 L 28 25 L 28 22.40625 C 28 20.773438 28.292969 19.886719 29.34375 19.1875 C 30.394531 18.488281 32.484375 18 36 18 Z M 2 27 L 48 27 L 48 48 L 44 48 L 44 45 L 6 45 L 6 48 L 2 48 Z "/>
</g>
</svg>
