<?xml version="1.0" encoding="iso-8859-1"?>
<!-- Generator: Adobe Illustrator 23.0.0, SVG Export Plug-In . SVG Version: 6.00 Build 0)  -->
<svg xmlns="http://www.w3.org/2000/svg" xmlns:xlink="http://www.w3.org/1999/xlink" version="1.1" id="Layer_4" x="0px" y="0px" viewBox="0 0 100 100" style="enable-background:new 0 0 100 100;" xml:space="preserve" width="100px" height="100px">
<path style="fill:#78CDD4;" d="M70,44H53l9-33L30,56h17l-9,33L70,44z"/>
<g>
	<path style="fill:#1F212B;" d="M38,90c-0.144,0-0.29-0.031-0.427-0.096c-0.438-0.208-0.665-0.699-0.537-1.167L45.691,57H30   c-0.374,0-0.717-0.209-0.889-0.542s-0.143-0.733,0.074-1.038l32-45c0.281-0.395,0.805-0.53,1.243-0.324   c0.438,0.208,0.665,0.699,0.537,1.167L54.309,43H70c0.374,0,0.717,0.209,0.889,0.542s0.143,0.733-0.074,1.038l-32,45   C38.622,89.851,38.315,90,38,90z M31.938,55H47c0.312,0,0.605,0.146,0.795,0.393c0.189,0.248,0.252,0.569,0.17,0.87l-7.52,27.573   L68.062,45H53c-0.312,0-0.605-0.146-0.795-0.393c-0.189-0.248-0.252-0.569-0.17-0.87l7.52-27.573L31.938,55z"/>
</g>
<g>
	<path style="fill:#1F212B;" d="M33.955,90c-0.044,0-0.088-0.005-0.132-0.018c-0.267-0.073-0.424-0.348-0.351-0.614l3.818-14   c0.073-0.267,0.35-0.424,0.614-0.351c0.267,0.073,0.424,0.348,0.351,0.614l-3.818,14C34.376,89.854,34.175,90,33.955,90z"/>
</g>
<g>
	<path style="fill:#1F212B;" d="M38.591,73c-0.044,0-0.088-0.005-0.132-0.018c-0.267-0.073-0.424-0.348-0.351-0.614l0.545-2   c0.073-0.267,0.349-0.425,0.614-0.351c0.267,0.073,0.424,0.348,0.351,0.614l-0.545,2C39.013,72.854,38.811,73,38.591,73z"/>
</g>
<g>
	<path style="fill:#1F212B;" d="M39.682,69c-0.044,0-0.088-0.005-0.132-0.018c-0.267-0.073-0.424-0.348-0.351-0.614l2.281-8.365   L29.5,60c-0.276,0-0.5-0.224-0.5-0.5c0-0.276,0.224-0.5,0.5-0.5l0,0l12.635,0.003c0.156,0,0.303,0.073,0.397,0.197   c0.095,0.124,0.126,0.285,0.085,0.435l-2.454,8.997C40.104,68.854,39.902,69,39.682,69z"/>
</g>
<g>
	<path style="fill:#1F212B;" d="M63.137,22c-0.044,0-0.088-0.005-0.132-0.018c-0.267-0.073-0.424-0.348-0.351-0.614l1.637-6   c0.073-0.267,0.35-0.424,0.614-0.351c0.267,0.073,0.424,0.348,0.351,0.614l-1.637,6C63.558,21.854,63.356,22,63.137,22z"/>
</g>
<g>
	<path style="fill:#1F212B;" d="M61.773,27c-0.044,0-0.088-0.005-0.132-0.018c-0.267-0.073-0.424-0.348-0.351-0.614l0.545-2   c0.072-0.267,0.35-0.424,0.614-0.351c0.267,0.073,0.424,0.348,0.351,0.614l-0.545,2C62.195,26.854,61.993,27,61.773,27z"/>
</g>
<g>
	<path style="fill:#1F212B;" d="M60.955,30c-0.043,0-0.088-0.005-0.132-0.018c-0.267-0.073-0.424-0.348-0.351-0.614l0.272-1   c0.073-0.267,0.349-0.424,0.614-0.351c0.267,0.073,0.424,0.348,0.351,0.614l-0.272,1C61.376,29.854,61.175,30,60.955,30z"/>
</g>
<g>
	<path style="fill:#1F212B;" d="M58.228,40c-0.044,0-0.088-0.005-0.132-0.018c-0.267-0.073-0.424-0.348-0.351-0.614l2.182-8   c0.073-0.267,0.349-0.425,0.614-0.351c0.267,0.073,0.424,0.348,0.351,0.614l-2.182,8C58.649,39.854,58.447,40,58.228,40z"/>
</g>
</svg>
