<?xml version="1.0"?>
<svg xmlns="http://www.w3.org/2000/svg" xmlns:xlink="http://www.w3.org/1999/xlink" version="1.1" viewBox="0 0 224 224" width="50px" height="50px"><g fill="none" fill-rule="nonzero" stroke="none" stroke-width="1" stroke-linecap="butt" stroke-linejoin="miter" stroke-miterlimit="10" stroke-dasharray="" stroke-dashoffset="0" font-family="none" font-weight="none" font-size="none" text-anchor="none" style="mix-blend-mode: normal"><path d="M0,224v-224h224v224z" fill="none"/><g fill="#f1c40f"><path d="M45.696,217.728c-0.896,0 -1.792,-0.448 -2.688,-0.896c-1.344,-0.896 -2.24,-3.136 -1.792,-4.928l19.712,-73.472l-59.136,-47.936c-1.792,-0.896 -2.24,-3.136 -1.792,-4.928c0.448,-1.792 2.24,-3.136 4.032,-3.136l76.16,-4.032l27.328,-71.232c0.896,-1.344 2.688,-2.688 4.48,-2.688c1.792,0 3.584,1.344 4.032,2.688l27.328,71.232l76.16,4.032c1.792,0 3.584,1.344 4.032,3.136c0.448,1.792 0,3.584 -1.344,4.928l-59.136,47.936l19.712,73.472c0.448,1.792 0,3.584 -1.792,4.928c-1.344,0.896 -3.584,1.344 -4.928,0l-64.064,-41.216l-64.064,41.216c-0.896,0.896 -1.344,0.896 -2.24,0.896z"/></g></g></svg>
