<?xml version="1.0" encoding="UTF-8"?>
<svg xmlns="http://www.w3.org/2000/svg" xmlns:xlink="http://www.w3.org/1999/xlink" viewBox="0 0 50 50" version="1.1" width="50px" height="50px">
<g id="surface1">
<path style=" " d="M 0.8125 0 C 0.335938 0.0898438 -0.0078125 0.511719 0 1 L 0 12.6875 C -0.00390625 13.195313 0.371094 13.625 0.875 13.6875 L 29.53125 17.15625 L 5.71875 19.21875 C 5.675781 19.214844 5.636719 19.214844 5.59375 19.21875 C 3.40625 19.710938 1.941406 20.738281 1.09375 21.875 C 0.246094 23.011719 0 24.203125 0 25.09375 L 0 25.875 C -0.00390625 25.917969 -0.00390625 25.957031 0 26 L 0 38.09375 C 0 38.125 0 38.15625 0 38.1875 L 0 39 C 0 39.929688 0.238281 41.167969 1.09375 42.3125 C 1.949219 43.457031 3.402344 44.4375 5.59375 44.875 C 5.625 44.886719 5.65625 44.898438 5.6875 44.90625 L 48.875 50 C 49.160156 50.035156 49.449219 49.945313 49.664063 49.753906 C 49.878906 49.5625 50.003906 49.289063 50 49 L 50 36.6875 C 49.988281 36.191406 49.617188 35.78125 49.125 35.71875 L 17.53125 32.1875 L 44.1875 29.90625 C 46.480469 29.683594 48.035156 28.628906 48.875 27.40625 C 49.714844 26.183594 49.90625 24.867188 49.90625 24 L 49.90625 11.46875 C 49.976563 11.324219 50.007813 11.160156 50 11 C 50 10.109375 49.753906 8.886719 48.90625 7.75 C 48.058594 6.613281 46.59375 5.617188 44.40625 5.125 C 44.375 5.113281 44.34375 5.101563 44.3125 5.09375 L 1.125 0 C 1.050781 -0.0078125 0.980469 -0.0078125 0.90625 0 C 0.875 0 0.84375 0 0.8125 0 Z M 2 2.125 L 5 2.46875 L 5 8 C 4.996094 8.359375 5.183594 8.695313 5.496094 8.878906 C 5.808594 9.058594 6.191406 9.058594 6.503906 8.878906 C 6.816406 8.695313 7.003906 8.359375 7 8 L 7 2.71875 L 10 3.0625 L 10 5.59375 C 9.996094 5.953125 10.183594 6.289063 10.496094 6.472656 C 10.808594 6.652344 11.191406 6.652344 11.503906 6.472656 C 11.816406 6.289063 12.003906 5.953125 12 5.59375 L 12 3.3125 L 15 3.65625 L 15 6.3125 C 14.996094 6.671875 15.183594 7.007813 15.496094 7.191406 C 15.808594 7.371094 16.191406 7.371094 16.503906 7.191406 C 16.816406 7.007813 17.003906 6.671875 17 6.3125 L 17 3.90625 L 20 4.25 L 20 9.90625 C 19.996094 10.265625 20.183594 10.601563 20.496094 10.785156 C 20.808594 10.964844 21.191406 10.964844 21.503906 10.785156 C 21.816406 10.601563 22.003906 10.265625 22 9.90625 L 22 4.46875 L 25 4.8125 L 25 7.59375 C 24.996094 7.953125 25.183594 8.289063 25.496094 8.472656 C 25.808594 8.652344 26.191406 8.652344 26.503906 8.472656 C 26.816406 8.289063 27.003906 7.953125 27 7.59375 L 27 5.0625 L 30 5.40625 L 30 8.1875 C 29.996094 8.546875 30.183594 8.882813 30.496094 9.066406 C 30.808594 9.246094 31.191406 9.246094 31.503906 9.066406 C 31.816406 8.882813 32.003906 8.546875 32 8.1875 L 32 5.65625 L 35 6 L 35 11.8125 C 34.996094 12.171875 35.183594 12.507813 35.496094 12.691406 C 35.808594 12.871094 36.191406 12.871094 36.503906 12.691406 C 36.816406 12.507813 37.003906 12.171875 37 11.8125 L 37 6.25 L 40 6.59375 L 40 9.5 C 39.996094 9.859375 40.183594 10.195313 40.496094 10.378906 C 40.808594 10.558594 41.191406 10.558594 41.503906 10.378906 C 41.816406 10.195313 42.003906 9.859375 42 9.5 L 42 6.84375 L 43.96875 7.0625 L 44.09375 7.09375 C 44.429688 7.175781 44.71875 7.273438 45 7.375 L 45 10.09375 C 44.996094 10.453125 45.183594 10.789063 45.496094 10.972656 C 45.808594 11.152344 46.191406 11.152344 46.503906 10.972656 C 46.816406 10.789063 47.003906 10.453125 47 10.09375 L 47 8.625 C 47.109375 8.738281 47.226563 8.855469 47.3125 8.96875 C 47.753906 9.5625 47.917969 10.171875 47.96875 10.65625 C 47.96875 10.667969 47.96875 10.675781 47.96875 10.6875 C 47.929688 10.789063 47.910156 10.894531 47.90625 11 C 47.90625 11.617188 47.742188 12.855469 47.1875 13.875 C 46.632813 14.894531 45.792969 15.734375 44 15.90625 L 39.15625 16.3125 L 39.125 16.3125 C 39.09375 16.3125 39.0625 16.3125 39.03125 16.3125 L 2 11.8125 Z M 47.90625 16.03125 L 47.90625 24 C 47.90625 24.535156 47.753906 25.472656 47.21875 26.25 C 46.683594 27.027344 45.808594 27.730469 44 27.90625 L 7.3125 31.0625 L 6 30.90625 C 4.269531 30.558594 3.332031 29.707031 2.75 28.71875 C 2.167969 27.730469 2 26.570313 2 26 C 2 25.96875 2 25.9375 2 25.90625 L 2 25.09375 C 2 24.585938 2.136719 23.800781 2.6875 23.0625 C 3.121094 22.480469 3.832031 21.917969 5 21.5 L 5 27 C 4.996094 27.359375 5.183594 27.695313 5.496094 27.878906 C 5.808594 28.058594 6.191406 28.058594 6.503906 27.878906 C 6.816406 27.695313 7.003906 27.359375 7 27 L 7 21.09375 L 10 20.84375 L 10 23.5 C 9.996094 23.859375 10.183594 24.195313 10.496094 24.378906 C 10.808594 24.558594 11.191406 24.558594 11.503906 24.378906 C 11.816406 24.195313 12.003906 23.859375 12 23.5 L 12 20.65625 L 15 20.40625 L 15 23 C 14.996094 23.359375 15.183594 23.695313 15.496094 23.878906 C 15.808594 24.058594 16.191406 24.058594 16.503906 23.878906 C 16.816406 23.695313 17.003906 23.359375 17 23 L 17 20.25 L 20 20 L 20 25.5 C 19.996094 25.859375 20.183594 26.195313 20.496094 26.378906 C 20.808594 26.558594 21.191406 26.558594 21.503906 26.378906 C 21.816406 26.195313 22.003906 25.859375 22 25.5 L 22 19.8125 L 25 19.5625 L 25 22 C 24.996094 22.359375 25.183594 22.695313 25.496094 22.878906 C 25.808594 23.058594 26.191406 23.058594 26.503906 22.878906 C 26.816406 22.695313 27.003906 22.359375 27 22 L 27 19.375 L 30 19.125 L 30 21.5 C 29.996094 21.859375 30.183594 22.195313 30.496094 22.378906 C 30.808594 22.558594 31.191406 22.558594 31.503906 22.378906 C 31.816406 22.195313 32.003906 21.859375 32 21.5 L 32 18.96875 L 35 18.71875 L 35 24 C 34.996094 24.359375 35.183594 24.695313 35.496094 24.878906 C 35.808594 25.058594 36.191406 25.058594 36.503906 24.878906 C 36.816406 24.695313 37.003906 24.359375 37 24 L 37 18.53125 L 40 18.28125 L 40 20.5 C 39.996094 20.859375 40.183594 21.195313 40.496094 21.378906 C 40.808594 21.558594 41.191406 21.558594 41.503906 21.378906 C 41.816406 21.195313 42.003906 20.859375 42 20.5 L 42 18.09375 L 44.1875 17.90625 C 44.46875 17.878906 44.746094 17.839844 45 17.78125 L 45 20 C 44.996094 20.359375 45.183594 20.695313 45.496094 20.878906 C 45.808594 21.058594 46.191406 21.058594 46.503906 20.878906 C 46.816406 20.695313 47.003906 20.359375 47 20 L 47 17 C 47.007813 16.9375 47.007813 16.875 47 16.8125 C 47.328125 16.570313 47.636719 16.3125 47.90625 16.03125 Z M 2 30.78125 C 2.753906 31.597656 3.679688 32.328125 5 32.71875 L 5 38 C 4.996094 38.359375 5.183594 38.695313 5.496094 38.878906 C 5.808594 39.058594 6.191406 39.058594 6.503906 38.878906 C 6.816406 38.695313 7.003906 38.359375 7 38 L 7 33.09375 L 7.21875 33.0625 L 10 33.375 L 10 35.59375 C 9.996094 35.953125 10.183594 36.289063 10.496094 36.472656 C 10.808594 36.652344 11.191406 36.652344 11.503906 36.472656 C 11.816406 36.289063 12.003906 35.953125 12 35.59375 L 12 33.59375 L 15 33.9375 L 15 36.3125 C 14.996094 36.671875 15.183594 37.007813 15.496094 37.191406 C 15.808594 37.371094 16.191406 37.371094 16.503906 37.191406 C 16.816406 37.007813 17.003906 36.671875 17 36.3125 L 17 34.15625 L 20 34.46875 L 20 39.90625 C 19.996094 40.265625 20.183594 40.601563 20.496094 40.785156 C 20.808594 40.964844 21.191406 40.964844 21.503906 40.785156 C 21.816406 40.601563 22.003906 40.265625 22 39.90625 L 22 34.71875 L 25 35.03125 L 25 37.59375 C 24.996094 37.953125 25.183594 38.289063 25.496094 38.472656 C 25.808594 38.652344 26.191406 38.652344 26.503906 38.472656 C 26.816406 38.289063 27.003906 37.953125 27 37.59375 L 27 35.25 L 30 35.59375 L 30 38.1875 C 29.996094 38.546875 30.183594 38.882813 30.496094 39.066406 C 30.808594 39.246094 31.191406 39.246094 31.503906 39.066406 C 31.816406 38.882813 32.003906 38.546875 32 38.1875 L 32 35.8125 L 35 36.15625 L 35 41.8125 C 34.996094 42.171875 35.183594 42.507813 35.496094 42.691406 C 35.808594 42.871094 36.191406 42.871094 36.503906 42.691406 C 36.816406 42.507813 37.003906 42.171875 37 41.8125 L 37 36.375 L 40 36.71875 L 40 39.5 C 39.996094 39.859375 40.183594 40.195313 40.496094 40.378906 C 40.808594 40.558594 41.191406 40.558594 41.503906 40.378906 C 41.816406 40.195313 42.003906 39.859375 42 39.5 L 42 36.9375 L 45 37.25 L 45 40.09375 C 44.996094 40.453125 45.183594 40.789063 45.496094 40.972656 C 45.808594 41.152344 46.191406 41.152344 46.503906 40.972656 C 46.816406 40.789063 47.003906 40.453125 47 40.09375 L 47 37.46875 L 48 37.59375 L 48 47.875 L 6 42.90625 C 4.191406 42.542969 3.234375 41.855469 2.6875 41.125 C 2.140625 40.394531 2 39.570313 2 39 L 2 38.25 C 2.003906 38.199219 2.003906 38.144531 2 38.09375 Z "/>
</g>
</svg>
