<?xml version="1.0"?>
<svg xmlns="http://www.w3.org/2000/svg" viewBox="0 0 50 50" width="50px" height="50px">
    <path style="line-height:normal;text-indent:0;text-align:start;text-decoration-line:none;text-decoration-style:solid;text-decoration-color:#000;text-transform:none;block-progression:tb;isolation:auto;mix-blend-mode:normal" d="M 20.4375 3 C 16.873221 3 13.307987 4.0157841 10.412109 6.1855469 C 10.149318 6.382374 9.8962023 6.5861169 9.6503906 6.7929688 C 8.5103975 7.7438635 7.5747705 8.8589688 6.8183594 10.017578 C 6.0005833 11.20836 5.4900652 12.485483 5.0605469 13.65625 A 1.0001 1.0001 0 0 0 6.7265625 14.6875 C 7.5662879 13.799706 8.3734626 13.016839 9.2519531 12.466797 A 1.0001 1.0001 0 0 0 9.2734375 12.453125 C 10.18959 11.846418 11.381677 11.219722 12.277344 10.960938 A 1.0001 1.0001 0 0 0 12.289062 10.957031 C 13.960757 10.452314 15.460342 10.133846 16.976562 10.033203 C 17.016163 10.030603 17 10.017406 17 10.035156 L 17 15 A 1.0001 1.0001 0 0 0 17.292969 15.707031 L 18.292969 16.707031 A 1.0001 1.0001 0 0 0 19 17 L 20 17 L 20 36 L 20 38 L 20 44 C 20 45.64497 21.35503 47 23 47 L 27 47 C 28.64497 47 30 45.64497 30 44 L 30 38 L 30 36 L 30 17 L 31 17 A 1.0001 1.0001 0 0 0 31.707031 16.707031 L 32.707031 15.707031 A 1.0001 1.0001 0 0 0 32.894531 15.447266 C 32.894531 15.447266 33.666667 14 35 14 C 35.166667 14 35.530651 14.138924 35.820312 14.332031 C 36.109974 14.525139 36.292969 14.707031 36.292969 14.707031 A 1.0001 1.0001 0 0 0 37 15 L 40 15 C 41.093063 15 42 14.093063 42 13 L 42 6 C 42 4.9069372 41.093063 4 40 4 L 37 4 A 1.0001 1.0001 0 0 0 36.292969 4.2929688 C 36.292969 4.2929688 36.109974 4.4748611 35.820312 4.6679688 C 35.530651 4.8610764 35.166667 5 35 5 C 33.666667 5 32.894531 3.5527344 32.894531 3.5527344 A 1.0001 1.0001 0 0 0 32 3 L 20.4375 3 z M 20.4375 5 L 31.515625 5 C 31.940081 5.6787187 32.910992 7 35 7 C 35.833333 7 36.469349 6.6389236 36.929688 6.3320312 C 37.173935 6.1691996 37.204176 6.1199409 37.341797 6 L 40 6 L 40 13 L 37.341797 13 C 37.204176 12.880059 37.173935 12.8308 36.929688 12.667969 C 36.469349 12.361076 35.833333 12 35 12 C 32.627535 12 31.452308 13.931118 31.208984 14.376953 L 30.585938 15 L 19.414062 15 L 19 14.585938 L 19 10.035156 C 19 8.8775293 17.97732 7.9648811 16.845703 8.0390625 L 16.84375 8.0390625 C 15.138679 8.1524246 13.480139 8.5089628 11.716797 9.0410156 C 10.853564 9.2911463 10.043966 9.7965644 9.2363281 10.259766 C 9.761131 9.5835091 10.262569 8.8862132 10.931641 8.328125 A 1.0001 1.0001 0 0 0 10.935547 8.3242188 C 11.156733 8.1380154 11.381271 7.959419 11.611328 7.7871094 C 14.115451 5.9108722 17.253779 5 20.4375 5 z M 8.1914062 10.771484 C 8.1881963 10.773484 8.1868037 10.777297 8.1835938 10.779297 C 8.1796938 10.781897 8.1738139 10.782556 8.1699219 10.785156 L 8.1914062 10.771484 z M 22 17 L 28 17 L 28 36 L 22 36 L 22 17 z M 22 38 L 28 38 L 28 44 C 28 44.56503 27.56503 45 27 45 L 23 45 C 22.43497 45 22 44.56503 22 44 L 22 38 z" font-weight="400" font-family="sans-serif" white-space="normal" overflow="visible"/>
</svg>
