<?xml version="1.0" encoding="iso-8859-1"?>
<!-- Generator: Adobe Illustrator 22.1.0, SVG Export Plug-In . SVG Version: 6.00 Build 0)  -->
<svg xmlns="http://www.w3.org/2000/svg" xmlns:xlink="http://www.w3.org/1999/xlink" version="1.1" id="Layer_1" x="0px" y="0px" viewBox="0 0 100 100" style="enable-background:new 0 0 100 100;" xml:space="preserve" width="100px" height="100px">
<g>
	<path style="fill:#1F212B;" d="M76,77c-0.256,0-0.512-0.098-0.707-0.293l-52-52c-0.391-0.391-0.391-1.023,0-1.414   s1.023-0.391,1.414,0l52,52c0.391,0.391,0.391,1.023,0,1.414C76.512,76.902,76.256,77,76,77z"/>
	<path style="fill:#1F212B;" d="M21.999,32c-0.531,0-0.974-0.419-0.998-0.956c-0.024-0.552,0.402-1.019,0.954-1.043l7.702-0.344   l0.344-7.702c0.025-0.552,0.504-0.965,1.044-0.955c0.552,0.025,0.979,0.492,0.954,1.043l-0.385,8.615   c-0.023,0.518-0.438,0.932-0.954,0.955l-8.615,0.385C22.029,32,22.015,32,21.999,32z"/>
	<path style="fill:#1F212B;" d="M27.499,37c-0.252,0-0.468-0.189-0.496-0.446c-0.03-0.274,0.168-0.521,0.443-0.551l7.716-0.841   l0.841-7.716c0.03-0.275,0.295-0.473,0.551-0.443c0.275,0.03,0.474,0.277,0.443,0.551l-0.885,8.115   c-0.025,0.233-0.21,0.417-0.443,0.443l-8.115,0.885C27.536,36.999,27.518,37,27.499,37z"/>
	<path style="fill:#1F212B;" d="M63.501,73c-0.019,0-0.037-0.001-0.055-0.003c-0.275-0.03-0.474-0.277-0.443-0.551l0.885-8.115   c0.025-0.233,0.21-0.417,0.443-0.443l8.115-0.885c0.258-0.023,0.521,0.167,0.551,0.443c0.03,0.274-0.168,0.521-0.443,0.551   l-7.716,0.841l-0.841,7.716C63.969,72.81,63.753,73,63.501,73z"/>
	<path style="fill:#1F212B;" d="M69.001,79c-0.016,0-0.03,0-0.046-0.001c-0.552-0.025-0.979-0.492-0.954-1.043l0.385-8.615   c0.023-0.518,0.438-0.932,0.954-0.955l8.615-0.385c0.552-0.017,1.02,0.402,1.044,0.955c0.024,0.552-0.402,1.019-0.954,1.043   l-7.702,0.344l-0.344,7.702C69.975,78.581,69.532,79,69.001,79z"/>
</g>
<g>
	<path style="fill:#1F212B;" d="M86,51H14c-0.553,0-1-0.448-1-1s0.447-1,1-1h72c0.553,0,1,0.448,1,1S86.553,51,86,51z"/>
	<path style="fill:#1F212B;" d="M17,58c-0.23,0-0.462-0.079-0.65-0.241c-0.42-0.359-0.469-0.991-0.108-1.41L21.683,50l-5.441-6.349   c-0.36-0.419-0.312-1.051,0.108-1.41c0.419-0.358,1.051-0.311,1.409,0.108l6,7c0.321,0.375,0.321,0.927,0,1.302l-6,7   C17.562,57.881,17.281,58,17,58z"/>
	<path style="fill:#1F212B;" d="M83,58c-0.281,0-0.562-0.119-0.759-0.349l-6-7c-0.321-0.375-0.321-0.927,0-1.302l6-7   c0.359-0.419,0.991-0.466,1.409-0.108c0.42,0.359,0.469,0.991,0.108,1.41L78.317,50l5.441,6.349c0.36,0.419,0.312,1.051-0.108,1.41   C83.462,57.921,83.23,58,83,58z"/>
	<path style="fill:#1F212B;" d="M74.5,57c-0.15,0-0.3-0.068-0.398-0.198l-4.927-6.5c-0.136-0.179-0.136-0.426,0-0.604l4.927-6.5   c0.168-0.221,0.482-0.262,0.7-0.096c0.221,0.167,0.264,0.48,0.097,0.701L70.2,50l4.698,6.198c0.167,0.22,0.124,0.534-0.097,0.701   C74.712,56.967,74.605,57,74.5,57z"/>
	<path style="fill:#1F212B;" d="M25.5,57c-0.105,0-0.212-0.033-0.302-0.102c-0.221-0.167-0.264-0.48-0.097-0.701L29.8,50   l-4.698-6.198c-0.167-0.22-0.124-0.534,0.097-0.701c0.218-0.166,0.532-0.125,0.7,0.096l4.927,6.5c0.136,0.179,0.136,0.426,0,0.604   l-4.927,6.5C25.8,56.932,25.65,57,25.5,57z"/>
</g>
<g>
	<path style="fill:#1F212B;" d="M50,87c-0.553,0-1-0.448-1-1V14c0-0.552,0.447-1,1-1s1,0.448,1,1v72C51,86.552,50.553,87,50,87z"/>
	<path style="fill:#1F212B;" d="M50,24c-0.231,0-0.464-0.08-0.65-0.241l-7-6c-0.42-0.359-0.469-0.991-0.108-1.41   c0.359-0.419,0.991-0.466,1.409-0.108L50,21.683l6.35-5.442c0.419-0.358,1.051-0.311,1.409,0.108   c0.36,0.419,0.312,1.051-0.108,1.41l-7,6C50.464,23.92,50.231,24,50,24z"/>
	<path style="fill:#1F212B;" d="M57,84c-0.23,0-0.462-0.079-0.65-0.241L50,78.317l-6.35,5.442c-0.418,0.36-1.05,0.312-1.409-0.108   c-0.36-0.419-0.312-1.051,0.108-1.41l7-6c0.373-0.321,0.928-0.321,1.301,0l7,6c0.42,0.359,0.469,0.991,0.108,1.41   C57.562,83.881,57.281,84,57,84z"/>
	<path style="fill:#1F212B;" d="M50,30.926c-0.106,0-0.213-0.034-0.302-0.102l-6.5-4.926c-0.221-0.167-0.264-0.48-0.097-0.701   c0.168-0.221,0.481-0.262,0.7-0.096L50,29.799l6.198-4.697c0.219-0.166,0.532-0.125,0.7,0.096c0.167,0.22,0.124,0.534-0.097,0.701   l-6.5,4.926C50.213,30.893,50.106,30.926,50,30.926z"/>
	<path style="fill:#1F212B;" d="M56.5,75c-0.105,0-0.212-0.033-0.302-0.102L50,70.201l-6.198,4.697   c-0.219,0.167-0.532,0.124-0.7-0.096c-0.167-0.22-0.124-0.534,0.097-0.701l6.5-4.926c0.178-0.136,0.426-0.136,0.604,0l6.5,4.926   c0.221,0.167,0.264,0.48,0.097,0.701C56.8,74.932,56.65,75,56.5,75z"/>
</g>
<g>
	<path style="fill:#1F212B;" d="M24,77c-0.256,0-0.512-0.098-0.707-0.293c-0.391-0.391-0.391-1.023,0-1.414l52-52   c0.391-0.391,1.023-0.391,1.414,0s0.391,1.023,0,1.414l-52,52C24.512,76.902,24.256,77,24,77z"/>
	<path style="fill:#1F212B;" d="M72.501,37c-0.019,0-0.037-0.001-0.055-0.003l-8.115-0.885c-0.233-0.025-0.418-0.209-0.443-0.443   l-0.885-8.115c-0.03-0.274,0.168-0.521,0.443-0.551c0.26-0.029,0.521,0.168,0.551,0.443l0.841,7.716l7.716,0.841   c0.275,0.03,0.474,0.277,0.443,0.551C72.969,36.81,72.753,37,72.501,37z"/>
	<path style="fill:#1F212B;" d="M36.499,73c-0.252,0-0.468-0.189-0.496-0.446l-0.841-7.716l-7.716-0.841   c-0.275-0.03-0.474-0.277-0.443-0.551c0.03-0.275,0.298-0.467,0.551-0.443l8.115,0.885c0.233,0.025,0.418,0.209,0.443,0.443   l0.885,8.115c0.03,0.274-0.168,0.521-0.443,0.551C36.536,72.999,36.518,73,36.499,73z"/>
	<path style="fill:#1F212B;" d="M30.999,79c-0.531,0-0.974-0.419-0.998-0.956l-0.344-7.702l-7.702-0.344   c-0.552-0.025-0.979-0.492-0.954-1.043c0.025-0.553,0.497-0.968,1.044-0.955l8.615,0.385c0.517,0.023,0.931,0.437,0.954,0.955   l0.385,8.615c0.024,0.552-0.402,1.019-0.954,1.043C31.029,79,31.015,79,30.999,79z"/>
	<path style="fill:#1F212B;" d="M78.001,32c-0.016,0-0.03,0-0.046-0.001l-8.615-0.385c-0.517-0.023-0.931-0.437-0.954-0.955   l-0.385-8.615c-0.024-0.552,0.402-1.019,0.954-1.043c0.563-0.014,1.019,0.402,1.044,0.955l0.344,7.702l7.702,0.344   c0.552,0.025,0.979,0.492,0.954,1.043C78.975,31.581,78.532,32,78.001,32z"/>
</g>
<g>
	<path style="fill:#78CDD4;" d="M63.976,55.637c0.077,0.232-0.039,0.492-0.261,0.589l-5.164,2.326l-2.326,5.164   c-0.087,0.212-0.309,0.328-0.589,0.261L50,62.084l-5.627,1.882c-0.241,0.087-0.502-0.029-0.598-0.261l-2.326-5.154l-5.164-2.326   c-0.222-0.097-0.338-0.357-0.261-0.589L37.916,50l-1.882-5.637c-0.087-0.232,0.029-0.492,0.251-0.589l5.164-2.326l2.326-5.164   c0.077-0.174,0.251-0.28,0.434-0.28c0.058,0,0.106,0.01,0.154,0.019L50,37.916l5.627-1.882c0.241-0.087,0.502,0.029,0.598,0.261   l2.326,5.154l5.164,2.326c0.222,0.096,0.338,0.357,0.261,0.589L62.084,50L63.976,55.637z"/>
	<path style="fill:#1F212B;" d="M44.209,64.999c-0.572,0-1.121-0.342-1.357-0.908l-2.159-4.783l-4.819-2.171   c-0.683-0.297-1.038-1.098-0.798-1.817l1.786-5.321l-1.776-5.319c-0.262-0.695,0.085-1.511,0.8-1.822l4.808-2.166l2.17-4.818   c0.234-0.526,0.764-0.87,1.347-0.87c0.132,0,0.244,0.018,0.354,0.04c0.04,0.008,0.079,0.019,0.118,0.032l5.319,1.785l5.309-1.775   c0.724-0.262,1.537,0.1,1.839,0.823l2.159,4.783l4.819,2.171c0.682,0.297,1.038,1.097,0.799,1.816L63.139,50l1.786,5.318   c0,0.001,0,0.001,0,0.002c0.24,0.719-0.115,1.52-0.81,1.822l-4.808,2.166l-2.17,4.818c-0.267,0.652-0.986,1.001-1.734,0.822   L50,63.139l-5.31,1.775C44.532,64.972,44.369,64.999,44.209,64.999z M55.315,63.304c-0.006,0.011-0.011,0.021-0.016,0.033   L55.315,63.304z M44.675,63.271l0.011,0.024C44.683,63.287,44.679,63.278,44.675,63.271z M44.058,63.018   c-0.008,0.002-0.016,0.005-0.023,0.008L44.058,63.018z M50,61.084c0.107,0,0.215,0.017,0.318,0.052l5.188,1.741l2.133-4.736   c0.101-0.223,0.279-0.401,0.501-0.501l4.737-2.134l-1.742-5.188c-0.069-0.207-0.069-0.43,0-0.637l1.742-5.188l-4.737-2.134   c-0.222-0.1-0.4-0.278-0.5-0.5l-2.136-4.731l-5.188,1.735c-0.207,0.069-0.429,0.069-0.636,0l-5.188-1.741l-2.134,4.736   c-0.101,0.223-0.279,0.401-0.501,0.501l-4.73,2.13l1.735,5.193c0.069,0.206,0.069,0.429,0,0.635l-1.742,5.188l4.737,2.134   c0.222,0.1,0.4,0.278,0.5,0.5l2.136,4.731l5.188-1.735C49.786,61.102,49.893,61.084,50,61.084z M63.305,55.314   c-0.004,0.001-0.008,0.003-0.012,0.005L63.305,55.314z M36.684,55.309l0.013,0.005C36.692,55.313,36.688,55.311,36.684,55.309z    M63.304,44.686c0.004,0.002,0.009,0.004,0.013,0.005L63.304,44.686z M36.707,44.681l-0.012,0.005   C36.699,44.685,36.703,44.683,36.707,44.681z M36.97,44.012l0.013,0.04C36.979,44.039,36.975,44.025,36.97,44.012z M55.966,36.975   l-0.023,0.008C55.95,36.98,55.958,36.977,55.966,36.975z M55.314,36.705c0.003,0.008,0.007,0.017,0.011,0.024L55.314,36.705z    M44.688,36.69l-0.003,0.005C44.687,36.694,44.688,36.692,44.688,36.69z"/>
	<path style="fill:#1F212B;" d="M43.19,51.5c-0.053,0-0.106-0.008-0.159-0.026c-0.262-0.088-0.402-0.372-0.314-0.633L42.999,50   l-0.956-2.861c-0.132-0.358,0.046-0.774,0.41-0.932l2.588-1.166l1.168-2.594c0.118-0.268,0.389-0.444,0.688-0.444   c0.031,0,0.138,0.012,0.168,0.018L50,42.999l2.856-0.955c0.361-0.133,0.785,0.048,0.94,0.421l0.387,0.855   c0.113,0.252,0.002,0.548-0.25,0.662s-0.548,0.002-0.662-0.25l-0.303-0.672L50.158,44c-0.102,0.034-0.214,0.034-0.317,0   l-2.81-0.943l-1.156,2.567c-0.05,0.111-0.14,0.2-0.251,0.25l-2.563,1.154l0.94,2.813c0.034,0.103,0.034,0.214-0.001,0.317l-0.336,1   C43.594,51.368,43.399,51.5,43.19,51.5z M42.863,47.118l-0.006,0.003C42.859,47.12,42.861,47.119,42.863,47.118z M42.986,46.808   l0.006,0.016C42.99,46.818,42.988,46.813,42.986,46.808z M53.186,42.988l-0.013,0.004C53.178,42.991,53.182,42.989,53.186,42.988z    M52.879,42.864c0.002,0.004,0.004,0.007,0.006,0.011L52.879,42.864z M47.123,42.854l-0.002,0.004   C47.121,42.856,47.122,42.855,47.123,42.854z"/>
	<path style="fill:#1F212B;" d="M46.897,57.999c-0.292,0-0.573-0.175-0.694-0.464l-1.162-2.575l-2.594-1.168   c-0.349-0.151-0.531-0.561-0.409-0.929l0.176-0.522c0.088-0.261,0.372-0.4,0.633-0.314c0.262,0.088,0.402,0.372,0.314,0.634   l-0.104,0.31l2.566,1.156c0.111,0.05,0.2,0.139,0.251,0.25l1.157,2.564l2.81-0.94c0.102-0.034,0.214-0.034,0.317,0l2.81,0.943   l1.156-2.567c0.051-0.111,0.14-0.2,0.251-0.25l2.567-1.156L56,50.159c-0.035-0.104-0.035-0.215,0-0.318l0.943-2.81l-2.567-1.156   c-0.111-0.05-0.2-0.139-0.251-0.25l-0.171-0.379c-0.113-0.252-0.001-0.548,0.25-0.661c0.253-0.114,0.547-0.002,0.662,0.25   l0.093,0.207l2.594,1.168c0.349,0.151,0.53,0.56,0.409,0.928L57.001,50l0.96,2.86c0.123,0.37-0.06,0.779-0.414,0.933l-2.588,1.166   l-1.168,2.594c-0.138,0.333-0.501,0.51-0.889,0.42L50,57.001l-2.856,0.955C47.063,57.985,46.979,57.999,46.897,57.999z    M52.879,57.143c-0.002,0.005-0.004,0.01-0.006,0.015L52.879,57.143z M47.116,57.125l0.005,0.011   C47.119,57.133,47.117,57.129,47.116,57.125z M46.827,57.008c-0.004,0.001-0.008,0.002-0.011,0.003L46.827,57.008z M57.143,52.879   c-0.002,0.001-0.004,0.002-0.006,0.003L57.143,52.879z M42.852,52.876l0.007,0.003C42.856,52.878,42.854,52.877,42.852,52.876z    M57.143,47.121c0.002,0.001,0.004,0.002,0.006,0.003L57.143,47.121z"/>
	<path style="fill:#1F212B;" d="M50,56.974c-0.276,0-0.5-0.224-0.5-0.5V46.5c0-0.276,0.224-0.5,0.5-0.5s0.5,0.224,0.5,0.5v9.974   C50.5,56.75,50.276,56.974,50,56.974z"/>
	<path style="fill:#1F212B;" d="M56.474,50.5H43.526c-0.276,0-0.5-0.224-0.5-0.5s0.224-0.5,0.5-0.5h12.947   c0.276,0,0.5,0.224,0.5,0.5S56.75,50.5,56.474,50.5z"/>
	<path style="fill:#1F212B;" d="M47,53.5c-0.128,0-0.256-0.049-0.354-0.146c-0.195-0.195-0.195-0.512,0-0.707l7.581-7.581   c0.195-0.195,0.512-0.195,0.707,0s0.195,0.512,0,0.707l-7.581,7.581C47.256,53.451,47.128,53.5,47,53.5z"/>
	<path style="fill:#1F212B;" d="M54.581,55.081c-0.128,0-0.256-0.049-0.354-0.146l-9.162-9.162c-0.195-0.195-0.195-0.512,0-0.707   s0.512-0.195,0.707,0l9.162,9.162c0.195,0.195,0.195,0.512,0,0.707C54.837,55.032,54.709,55.081,54.581,55.081z"/>
</g>
</svg>
