<?xml version="1.0"?>
<svg xmlns="http://www.w3.org/2000/svg" xmlns:xlink="http://www.w3.org/1999/xlink" version="1.1" viewBox="0 0 224 224" width="50px" height="50px"><g fill="none" fill-rule="nonzero" stroke="none" stroke-width="1" stroke-linecap="butt" stroke-linejoin="miter" stroke-miterlimit="10" stroke-dasharray="" stroke-dashoffset="0" font-family="none" font-weight="none" font-size="none" text-anchor="none" style="mix-blend-mode: normal"><path d="M0,224v-224h224v224z" fill="none"/><g fill="#e0e0e0"><g id="surface1"><path d="M112,4.48c-39.6025,0 -71.68,32.0775 -71.68,71.68c0,32.7425 17.29,67.935 34.3,95.2c17.01,27.265 34.02,46.62 34.02,46.62c0.8575,0.9625 2.0825,1.5225 3.36,1.5225c1.2775,0 2.5025,-0.56 3.36,-1.5225c0,0 17.0275,-19.7575 34.02,-47.18c16.9925,-27.4225 34.3,-62.5275 34.3,-94.64c0,-39.6025 -32.0775,-71.68 -71.68,-71.68zM112,13.44c34.7725,0 62.72,27.9475 62.72,62.72c0,28.8225 -16.2925,63.0875 -32.9,89.88c-13.9125,22.4525 -25.69,36.9075 -29.82,41.86c-4.165,-4.9175 -15.9425,-19.0575 -29.82,-41.3c-16.59,-26.6 -32.9,-60.9175 -32.9,-90.44c0,-34.7725 27.9475,-62.72 62.72,-62.72zM112,49.28c-17.2725,0 -31.36,14.0875 -31.36,31.36c0,17.2725 14.0875,31.36 31.36,31.36c17.2725,0 31.36,-14.0875 31.36,-31.36c0,-17.2725 -14.0875,-31.36 -31.36,-31.36zM112,58.24c12.425,0 22.4,9.975 22.4,22.4c0,12.425 -9.975,22.4 -22.4,22.4c-12.425,0 -22.4,-9.975 -22.4,-22.4c0,-12.425 9.975,-22.4 22.4,-22.4z"/></g></g></g></svg>
