<?xml version="1.0" encoding="iso-8859-1"?>
<!-- Generator: Adobe Illustrator 22.1.0, SVG Export Plug-In . SVG Version: 6.00 Build 0)  -->
<svg xmlns="http://www.w3.org/2000/svg" xmlns:xlink="http://www.w3.org/1999/xlink" version="1.1" id="Layer_1" x="0px" y="0px" viewBox="0 0 100 100" style="enable-background:new 0 0 100 100;" xml:space="preserve" width="100px" height="100px">
<path style="fill:#F37E98;" d="M71,82H29c-6.075,0-11-4.925-11-11V29c0-6.075,4.925-11,11-11h42c6.075,0,11,4.925,11,11v42  C82,77.075,77.075,82,71,82z"/>
<g>
	<g>
		<path style="fill:#F4CCCB;" d="M75,29v42c0,2.21-1.79,4-4,4H29c-2.21,0-4-1.79-4-4V29c0-2.21,1.79-4,4-4h42    C73.21,25,75,26.79,75,29z"/>
	</g>
</g>
<path style="fill:#1F212B;" d="M71,75H29c-2.206,0-4-1.794-4-4V29c0-2.206,1.794-4,4-4h3.5c0.276,0,0.5,0.224,0.5,0.5  S32.776,26,32.5,26H29c-1.654,0-3,1.346-3,3v42c0,1.654,1.346,3,3,3h42c1.654,0,3-1.346,3-3v-2.5c0-0.276,0.224-0.5,0.5-0.5  s0.5,0.224,0.5,0.5V71C75,73.206,73.206,75,71,75z"/>
<path style="fill:#1F212B;" d="M74.5,59c-0.276,0-0.5-0.224-0.5-0.5V29c0-1.654-1.346-3-3-3H45.5c-0.276,0-0.5-0.224-0.5-0.5  s0.224-0.5,0.5-0.5H71c2.206,0,4,1.794,4,4v29.5C75,58.776,74.776,59,74.5,59z"/>
<path style="fill:#1F212B;" d="M42.5,26h-3c-0.276,0-0.5-0.224-0.5-0.5s0.224-0.5,0.5-0.5h3c0.276,0,0.5,0.224,0.5,0.5  S42.776,26,42.5,26z"/>
<path style="fill:#1F212B;" d="M36.5,26h-2c-0.276,0-0.5-0.224-0.5-0.5s0.224-0.5,0.5-0.5h2c0.276,0,0.5,0.224,0.5,0.5  S36.776,26,36.5,26z"/>
<path style="fill:#1F212B;" d="M71,83H29c-6.617,0-12-5.383-12-12V29c0-6.617,5.383-12,12-12h42c6.617,0,12,5.383,12,12v42  C83,77.617,77.617,83,71,83z M29,19c-5.514,0-10,4.486-10,10v42c0,5.514,4.486,10,10,10h42c5.514,0,10-4.486,10-10V29  c0-5.514-4.486-10-10-10H29z"/>
</svg>
