<?xml version="1.0" encoding="utf-8"?>
<!-- Generator: Adobe Illustrator 21.0.0, SVG Export Plug-In . SVG Version: 6.00 Build 0)  -->
<svg xmlns="http://www.w3.org/2000/svg" xmlns:xlink="http://www.w3.org/1999/xlink" version="1.1" x="0px" y="0px" viewBox="0 0 100 100" style="enable-background:new 0 0 100 100;" xml:space="preserve" width="100px" height="100px">

<g id="wind_sock">
</g>
<g id="umbrella">
</g>
<g id="temperature">
</g>
<g id="snow_rain_night">
</g>
<g id="snow_rain_day">
</g>
<g id="windy_day">
</g>
<g id="windy_night">
</g>
<g id="storm_night">
</g>
<g id="clear_night">
</g>
<g id="snow_night">
</g>
<g id="snow_day">
</g>
<g id="snow_rain">
</g>
<g id="foggy_night">
</g>
<g id="cloudy_night">
</g>
<g id="rain">
</g>
<g id="storm">
</g>
<g id="fog">
</g>
<g id="wind">
</g>
<g id="cloudy">
</g>
<g id="sun">
	<g>
		<g>
			<circle cx="50.5" cy="49.728" r="21.5" style="fill:#FDF5A9;"/>
			<path d="M50.5,72.228c-12.407,0-22.5-10.094-22.5-22.5s10.093-22.5,22.5-22.5S73,37.322,73,49.728     S62.907,72.228,50.5,72.228z M50.5,29.228c-11.304,0-20.5,9.196-20.5,20.5s9.196,20.5,20.5,20.5S71,61.032,71,49.728     S61.804,29.228,50.5,29.228z" style="fill:#1F212B;"/>
		</g>
		<g>
			<path d="M50,25.228c-0.552,0-1-0.447-1-1v-7c0-0.553,0.448-1,1-1s1,0.447,1,1v7C51,24.781,50.552,25.228,50,25.228z" style="fill:#1F212B;"/>
			<path d="M50,83.228c-0.552,0-1-0.447-1-1v-7c0-0.553,0.448-1,1-1s1,0.447,1,1v7C51,82.781,50.552,83.228,50,83.228z" style="fill:#1F212B;"/>
		</g>
		<g>
			<path d="M83,51.228h-7c-0.552,0-1-0.447-1-1s0.448-1,1-1h7c0.552,0,1,0.447,1,1S83.552,51.228,83,51.228z" style="fill:#1F212B;"/>
			<path d="M24,51.228h-7c-0.552,0-1-0.447-1-1s0.448-1,1-1h7c0.552,0,1,0.447,1,1S24.552,51.228,24,51.228z" style="fill:#1F212B;"/>
		</g>
		<g>
			<path d="M67.978,33.022c-0.256,0-0.512-0.098-0.707-0.293c-0.391-0.391-0.391-1.023,0-1.414l5.057-5.058     c0.391-0.391,1.023-0.391,1.414,0s0.391,1.023,0,1.414l-5.057,5.058C68.489,32.925,68.233,33.022,67.978,33.022z" style="fill:#1F212B;"/>
			<path d="M26.965,74.035c-0.256,0-0.512-0.098-0.707-0.293c-0.391-0.391-0.391-1.023,0-1.414l5.057-5.058     c0.391-0.391,1.023-0.391,1.414,0s0.391,1.023,0,1.414l-5.057,5.058C27.477,73.937,27.221,74.035,26.965,74.035z" style="fill:#1F212B;"/>
		</g>
		<g>
			<path d="M73.334,74.335c-0.256,0-0.512-0.098-0.707-0.293l-5.19-5.19c-0.391-0.391-0.391-1.023,0-1.414     s1.023-0.391,1.414,0l5.19,5.19c0.391,0.391,0.391,1.023,0,1.414C73.846,74.237,73.59,74.335,73.334,74.335z" style="fill:#1F212B;"/>
			<path d="M31.782,32.782c-0.256,0-0.512-0.098-0.707-0.293l-5.116-5.116c-0.391-0.391-0.391-1.023,0-1.414     s1.023-0.391,1.414,0l5.116,5.116c0.391,0.391,0.391,1.023,0,1.414C32.293,32.684,32.038,32.782,31.782,32.782z" style="fill:#1F212B;"/>
		</g>
		<path d="M61.313,37.11c-0.112,0-0.225-0.037-0.317-0.114c-0.357-0.294-0.726-0.574-1.107-0.839    c-0.227-0.157-0.283-0.469-0.125-0.695s0.469-0.284,0.696-0.125c0.403,0.28,0.795,0.576,1.172,0.888    c0.213,0.176,0.244,0.491,0.068,0.704C61.601,37.048,61.458,37.11,61.313,37.11z" style="fill:#1F212B;"/>
		<path d="M50.5,67.228c-9.649,0-17.5-7.851-17.5-17.5s7.851-17.5,17.5-17.5c2.899,0,5.772,0.724,8.307,2.094    c0.243,0.131,0.333,0.435,0.202,0.677c-0.131,0.243-0.433,0.333-0.678,0.202c-2.39-1.29-5.098-1.973-7.832-1.973    c-9.098,0-16.5,7.402-16.5,16.5s7.402,16.5,16.5,16.5c0.276,0,0.5,0.224,0.5,0.5S50.776,67.228,50.5,67.228z" style="fill:#1F212B;"/>
		<path d="M54.079,66.85c-0.231,0-0.438-0.161-0.489-0.396c-0.057-0.27,0.115-0.535,0.385-0.593    c0.259-0.055,0.515-0.116,0.77-0.184c0.267-0.073,0.541,0.089,0.611,0.355s-0.088,0.541-0.355,0.611    c-0.27,0.071-0.543,0.137-0.817,0.195C54.148,66.847,54.113,66.85,54.079,66.85z" style="fill:#1F212B;"/>
		<path d="M56.793,66.025c-0.205,0-0.396-0.126-0.47-0.329c-0.094-0.26,0.04-0.547,0.3-0.641    c0.822-0.299,1.141-0.478,1.909-0.91l0.296,0.407l0.194,0.464c-0.771,0.435-1.159,0.652-2.059,0.979    C56.908,66.015,56.85,66.025,56.793,66.025z" style="fill:#1F212B;"/>
	</g>
</g>
<g id="explorer">
</g>
<g id="visio">
</g>
<g id="access">
</g>
<g id="note">
</g>
<g id="outlook">
</g>
<g id="pdf">
</g>
<g id="power_point">
</g>
<g id="exel">
</g>
<g id="word">
</g>
<g id="office">
</g>
<g id="bridge">
</g>
<g id="muse">
</g>
<g id="flash">
</g>
<g id="premiere">
</g>
<g id="after_effects">
</g>
<g id="dreamwever">
</g>
<g id="indesign">
</g>
<g id="lightroom">
</g>
<g id="illustrator">
</g>
<g id="photoshop">
</g>
<g id="presentation">
</g>
<g id="microphone">
</g>
<g id="globe">
</g>
<g id="password">
</g>
<g id="break_link">
</g>
<g id="link">
</g>
<g id="tap">
</g>
<g id="down">
</g>
<g id="top">
</g>
<g id="direction">
</g>
<g id="move">
</g>
<g id="click">
</g>
<g id="point">
</g>
<g id="like">
</g>
<g id="support">
</g>
<g id="wifi">
</g>
<g id="music">
</g>
<g id="more">
</g>
<g id="visible">
</g>
<g id="error">
</g>
<g id="list">
</g>
<g id="grid">
</g>
<g id="favorite">
</g>
<g id="exit">
</g>
<g id="power">
</g>
<g id="delete">
</g>
<g id="msg">
</g>
<g id="info">
</g>
<g id="help">
</g>
<g id="warning">
</g>
<g id="cassete">
</g>
<g id="piano">
</g>
<g id="speaker">
</g>
<g id="attention">
</g>
<g id="crown">
</g>
<g id="prize">
</g>
<g id="medal">
</g>
<g id="alarm">
</g>
<g id="stopper">
</g>
<g id="flag">
</g>
<g id="snapchat">
</g>
<g id="dribbble">
</g>
<g id="flickr">
</g>
<g id="youtube">
</g>
<g id="skype">
</g>
<g id="twitter">
</g>
<g id="instagram">
</g>
<g id="linkedin">
</g>
<g id="vimeo">
</g>
<g id="tumbler">
</g>
<g id="google">
</g>
<g id="whatsapp">
</g>
<g id="facebook">
</g>
<g id="curve">
</g>
<g id="paint_bucket">
</g>
<g id="roller">
</g>
<g id="switch">
</g>
<g id="scissors">
</g>
<g id="picker">
</g>
<g id="brush">
</g>
</svg>
