<?xml version="1.0" encoding="utf-8"?>
<!-- Generator: Adobe Illustrator 21.0.0, SVG Export Plug-In . SVG Version: 6.00 Build 0)  -->
<svg xmlns="http://www.w3.org/2000/svg" xmlns:xlink="http://www.w3.org/1999/xlink" version="1.1" x="0px" y="0px" viewBox="0 0 100 100" style="enable-background:new 0 0 100 100;" xml:space="preserve" width="100px" height="100px">

<g id="bank">
</g>
<g id="pig">
</g>
<g id="card_eject">
</g>
<g id="cash_money">
</g>
<g id="card_secured">
</g>
<g id="cheque">
</g>
<g id="alarm_coins">
</g>
<g id="box_edit">
</g>
<g id="box_lock">
</g>
<g id="box_favorite">
</g>
<g id="box_diamont">
</g>
<g id="box_secured">
</g>
<g id="chat_edit">
</g>
<g id="chat_delete">
</g>
<g id="chat_add">
</g>
<g id="chat_love">
</g>
<g id="chat_search">
</g>
<g id="finance_mail">
</g>
<g id="finance_order">
</g>
<g id="finance_dollars">
</g>
<g id="folder_medal">
</g>
<g id="folder_edit">
</g>
<g id="folder_bills">
</g>
<g id="folder_pictures">
</g>
<g id="folder_logs">
</g>
<g id="folder_diamond">
</g>
<g id="folder_mail">
</g>
<g id="folder_favorite">
</g>
<g id="folder_globe">
</g>
<g id="folder_music">
</g>
<g id="open_envelope_remove">
</g>
<g id="open_envelope_add">
</g>
<g id="open_envelope_clock">
</g>
<g id="open_envelope_delete">
</g>
<g id="envelope_lock">
</g>
<g id="envelope_love">
</g>
<g id="envelope_number">
</g>
<g id="envelope_important">
</g>
<g id="envelope_dots">
</g>
<g id="envelope__x40_">
</g>
<g id="mail_envelope">
</g>
<g id="envelope_open">
</g>
<g id="cd">
</g>
<g id="database_delete">
</g>
<g id="database_remove">
</g>
<g id="database_clock">
</g>
<g id="database_add">
</g>
<g id="database_check">
</g>
<g id="databes_dots">
</g>
<g id="database_search">
</g>
<g id="window_plug">
</g>
<g id="window_secured">
</g>
<g id="window_cloud">
</g>
<g id="window_star">
</g>
<g id="window_top">
</g>
<g id="window_arrows">
</g>
<g id="window_settings">
</g>
<g id="window_search">
</g>
<g id="zoom_out">
</g>
<g id="zoom_in">
</g>
<g id="filter">
</g>
<g id="bell">
</g>
<g id="battery_plugged">
</g>
<g id="battery_1">
</g>
<g id="battery_2">
</g>
<g id="battery_3_1_">
</g>
<g id="battery_4_1_">
</g>
<g id="battery_charge">
	<g>
		<g>
			<path d="M67.328,65.298c3.03,0,5.593-2.074,6.357-4.871c0.304,0.193,0.662,0.309,1.047,0.309h2.903     c1.084,0,1.97-0.887,1.97-1.97V40.309c0-1.084-0.887-1.97-1.97-1.97h-2.903c-0.385,0-0.742,0.116-1.047,0.309     c-0.763-2.797-3.326-4.871-6.357-4.871h-40.44c-3.627,0-6.594,2.968-6.594,6.594v18.333c0,3.627,2.968,6.594,6.594,6.594H67.328z     " style="fill:#78A2D2;"/>
		</g>
		<g>
			<path d="M55.301,65.737h12.078c3.03,0,5.593-2.074,6.357-4.871c0.304,0.193,0.662,0.309,1.047,0.309h2.903     c1.084,0,1.97-0.887,1.97-1.97V40.748c0-1.084-0.887-1.97-1.97-1.97h-2.903c-0.385,0-0.742,0.116-1.047,0.309     c-0.763-2.797-3.326-4.871-6.357-4.871H53.801" style="fill:none;"/>
			<path d="M43.675,34.215H26.939c-3.627,0-6.594,2.968-6.594,6.594v18.333c0,3.627,2.968,6.594,6.594,6.594H43.55" style="fill:none;"/>
			<polygon points="48.151,31.457 59.36,53.692 51.562,53.692 51.562,68.496 38.891,47.296 48.151,47.296    " style="fill:#EDDC67;"/>
		</g>
		<g>
			<path d="M78.014,37.976h-3.371c-0.181,0-0.36,0.016-0.537,0.047c-1.271-3.019-4.249-5.047-7.577-5.047H53.984     c-0.552,0-1,0.448-1,1s0.448,1,1,1h12.545c2.794,0,5.262,1.892,6.002,4.602c0.067,0.246,0.241,0.434,0.453,0.566v15.333     c0,0.276,0.224,0.5,0.5,0.5s0.5-0.224,0.5-0.5V40.176c0.015-0.008,0.033-0.007,0.047-0.016c0.191-0.122,0.397-0.183,0.611-0.183     h3.371c0.535,0,0.97,0.435,0.97,0.97v18.06c0,0.535-0.435,0.97-0.97,0.97h-3.371c-0.43,0.062-0.659-0.5-0.659-0.5     c0-0.276-0.224-0.5-0.5-0.5s-0.5,0.224-0.5,0.5c0,0-0.245,0.902-0.312,1.148c-0.74,2.709-3.349,4.352-6.143,4.352H54.984     c-0.552,0-1,0.448-1,1s0.448,1,1,1h11.545c3.328,0,6.306-2.029,7.577-5.047c0.177,0.031,0.356,0.047,0.537,0.047h3.371     c1.638,0,2.97-1.333,2.97-2.97v-18.06C80.984,39.309,79.652,37.976,78.014,37.976z" style="fill:#1F212B;"/>
			<path d="M43.984,64.976H26.579c-3.085,0-5.595-2.51-5.595-5.595V40.571c0-3.085,2.51-5.595,5.595-5.595h17.405     c0.552,0,1-0.448,1-1s-0.448-1-1-1H26.579c-4.188,0-7.595,3.407-7.595,7.595v18.811c0,4.188,3.407,7.595,7.595,7.595h17.405     c0.552,0,1-0.448,1-1S44.536,64.976,43.984,64.976z" style="fill:#1F212B;"/>
			<path d="M72.984,56.831v1c0,0.276,0.224,0.5,0.5,0.5s0.5-0.224,0.5-0.5v-1c0-0.276-0.224-0.5-0.5-0.5     S72.984,56.554,72.984,56.831z" style="fill:#1F212B;"/>
			<path d="M59.785,53.74c0.091-0.146,0.1-0.33,0.023-0.485L48.932,31.259c-0.103-0.208-0.335-0.317-0.562-0.265     c-0.226,0.053-0.386,0.254-0.386,0.487v15.496h-9.093c-0.18,0-0.346,0.097-0.435,0.253s-0.086,0.349,0.006,0.503l12.593,21.043     c0.092,0.153,0.256,0.243,0.429,0.243c0.044,0,0.089-0.006,0.133-0.018c0.217-0.06,0.367-0.257,0.367-0.482V53.976h7.375     C59.533,53.976,59.693,53.887,59.785,53.74z M51.484,52.976c-0.276,0-0.5,0.224-0.5,0.5V66.71L39.773,47.976h8.711     c0.276,0,0.5-0.224,0.5-0.5V33.62l9.57,19.356H51.484z" style="fill:#1F212B;"/>
		</g>
	</g>
</g>
<g id="game">
</g>
<g id="polaroid">
</g>
<g id="remote_control">
</g>
<g id="tv">
</g>
<g id="SIM_card">
</g>
<g id="video_camera">
</g>
<g id="ticket">
</g>
<g id="cinema_tape">
</g>
<g id="movie_clip">
</g>
<g id="radio">
</g>
<g id="projector">
</g>
<g id="tablet">
</g>
<g id="network_plug">
</g>
<g id="cooler">
</g>
<g id="card_sd">
</g>
<g id="aircard">
</g>
<g id="USB">
</g>
<g id="hard_drive">
</g>
<g id="RAM">
</g>
<g id="chip">
</g>
<g id="database">
</g>
<g id="keyboard">
</g>
<g id="domain">
</g>
<g id="imac_connected">
</g>
<g id="cloud_connection">
</g>
<g id="connection_lock">
</g>
<g id="network_security">
</g>
<g id="shared_files">
</g>
<g id="internet">
</g>
<g id="globe_network">
</g>
<g id="pc">
</g>
<g id="website">
</g>
</svg>
